<svg width="327" height="75" viewBox="0 0 327 75" fill="none" xmlns="http://www.w3.org/2000/svg">
<path d="M20.358 69.292C22.4138 69.292 24.3571 68.8803 26.1912 68.0636C28.0244 67.2444 29.6367 66.1179 31.0265 64.6833C32.4172 63.252 33.5249 61.583 34.3515 59.6787C35.1764 57.7761 35.5905 55.7384 35.5905 53.5666C35.5905 51.3981 35.1984 49.3596 34.4118 47.4562C33.626 45.5511 32.5476 43.8928 31.1773 42.4822C29.8071 41.0683 28.216 39.9525 26.4031 39.1334C24.5894 38.3142 22.6551 37.9041 20.6001 37.9041C18.5452 37.9041 16.5897 38.3142 14.7369 39.1334C12.8832 39.9525 11.2399 41.0683 9.81098 42.4822C8.3796 43.8928 7.25146 45.5511 6.42572 47.4562C5.59999 49.3596 5.1859 51.3981 5.1859 53.5666C5.1859 55.7384 5.58939 57.7761 6.39556 59.6787C7.20092 61.583 8.29891 63.252 9.69034 64.6833C11.0802 66.1179 12.6917 67.2544 14.5257 68.0951C16.359 68.9325 18.3031 69.3525 20.358 69.3525V69.292ZM20.301 33.1787C23.1474 33.1787 25.8089 33.7237 28.2869 34.8121C30.7633 35.9038 32.9177 37.3798 34.7517 39.241C36.5833 41.1056 38.0278 43.2757 39.0809 45.7524C40.1341 48.229 40.6606 50.8763 40.6606 53.6875C40.6606 56.5029 40.1341 59.1477 39.0809 61.6235C38.0278 64.1018 36.5833 66.2621 34.7517 68.1042C32.9177 69.9464 30.7633 71.4042 28.2869 72.4735C25.8089 73.5437 23.1474 74.0788 20.301 74.0788C17.4537 74.0788 14.7915 73.5437 12.3151 72.4735C9.83788 71.4042 7.69326 69.9381 5.87958 68.0744C4.0659 66.2124 2.63289 64.043 1.57892 61.5647C0.526578 59.0906 0 56.4441 0 53.6287C0 50.815 0.526578 48.1702 1.57892 45.6927C2.63289 43.2152 4.07487 41.0467 5.90893 39.1814C7.74135 37.3202 9.88679 35.8533 12.3444 34.7831C14.8012 33.7137 17.4537 33.1787 20.301 33.1787Z" fill="#00B140"/>
<path d="M13.2571 69.2205C13.2571 69.2205 9.40235 30.6263 35.9848 7.2664L27.5897 5.14759C27.5897 5.14759 6.48253 24.303 8.56439 65.1916L13.2571 69.2205Z" fill="#00B140"/>
<path d="M20.2482 70.9232C20.2482 70.9232 18.9595 33.7636 54.0242 7.79041L45.8639 5.59789C45.8639 5.59789 16.1358 28.1709 15.4854 68.7447L20.2482 70.9232Z" fill="#BAFF29"/>
<path d="M28.053 69.7117C28.053 69.7117 33.7361 34.0896 73.0501 12.0591L64.6852 8.66135C64.6852 8.66135 29.067 27.0349 23.123 69.1824L28.053 69.7117Z" fill="#00B140"/>
<path d="M35.2337 56.9004C35.0282 57.8555 34.7389 58.7823 34.3501 59.6786C33.5243 61.5828 32.4157 63.2519 31.0251 64.6832C29.6361 66.1178 28.0238 67.2443 26.1905 68.0635C24.3557 68.8802 22.8314 69.2811 20.3574 69.2919C20.3574 69.2919 16.9616 69.2124 14.5251 68.095C12.6919 67.2526 11.0787 66.1178 9.68892 64.6832C8.29829 63.2519 7.2003 61.5828 6.39495 59.6786C6.0151 58.7823 5.73306 57.8555 5.53172 56.9004H0.272461C0.525153 58.514 0.944949 60.0745 1.57831 61.5646C2.63147 64.0429 4.06529 66.2122 5.87897 68.0743C7.69265 69.938 9.83646 71.4041 12.3137 72.4734C14.79 73.5436 17.4523 74.0787 20.2995 74.0787C23.146 74.0787 25.8082 73.5436 28.2863 72.4734C30.7618 71.4041 32.9162 69.9462 34.7511 68.1041C36.5827 66.2619 38.0263 64.1017 39.0795 61.6234C39.721 60.1142 40.1432 58.5355 40.3943 56.9004H35.2337Z" fill="#00B140"/>
<path d="M76.8715 59.6744C68.7228 59.6744 62.822 53.4926 62.822 44.9506C62.822 36.4085 68.7228 30.2267 76.8715 30.2267C85.0202 30.2267 90.9209 36.4085 90.9209 44.9506C90.9209 53.4926 85.0202 59.6744 76.8715 59.6744ZM67.5426 44.9506C67.5426 50.9075 71.4765 55.1785 76.8715 55.1785C82.2665 55.1785 86.2003 50.9075 86.2003 44.9506C86.2003 38.9374 82.2665 34.6102 76.8715 34.6102C71.4765 34.6102 67.5426 38.9374 67.5426 44.9506ZM115.111 42.2531C115.111 37.8696 112.245 34.7225 108.031 34.7225C103.366 34.7225 99.4885 38.6002 99.4885 43.939V59H94.9926V30.9011H98.8141L99.4323 36.0713C100.893 32.587 104.209 30.2267 108.705 30.2267C115.055 30.2267 119.607 35.1159 119.607 41.9159V59H115.111V42.2531ZM136.905 59.6744C128.813 59.6744 123.193 53.5488 123.193 45.0629C123.193 36.4647 128.813 30.2267 136.68 30.2267C144.773 30.2267 149.943 36.7457 149.943 45.7373C149.943 45.9621 149.943 46.2431 149.887 46.6927H128.138C128.813 51.6943 132.297 55.1785 136.905 55.1785C140.614 55.1785 143.986 52.8182 144.661 49.5588L149.718 51.1323C148.482 56.0777 143.199 59.6744 136.905 59.6744ZM128.251 42.3093H145.11C144.211 37.3638 140.502 34.6102 136.456 34.6102C132.297 34.6102 129.094 37.701 128.251 42.3093ZM191.082 42.1407C191.082 37.8134 188.553 34.8349 184.788 34.8349C180.517 34.8349 177.145 38.7126 177.145 44.0514V59H172.705V42.3655C172.705 37.982 170.176 34.8349 166.243 34.8349C161.915 34.8349 158.487 38.7126 158.487 44.0514V59H153.992V30.9011H157.588L158.375 35.7903C159.555 32.4746 162.927 30.2267 166.917 30.2267C171.132 30.2267 174.56 32.7556 176.133 36.6333C177.257 32.868 181.191 30.2267 185.575 30.2267C191.756 30.2267 195.578 35.3969 195.578 41.6911V59H191.082V42.1407ZM213.199 59.6744C205.051 59.6744 199.15 53.4926 199.15 44.9506C199.15 36.4085 205.051 30.2267 213.199 30.2267C221.348 30.2267 227.249 36.4085 227.249 44.9506C227.249 53.4926 221.348 59.6744 213.199 59.6744ZM203.871 44.9506C203.871 50.9075 207.804 55.1785 213.199 55.1785C218.594 55.1785 222.528 50.9075 222.528 44.9506C222.528 38.9374 218.594 34.6102 213.199 34.6102C207.804 34.6102 203.871 38.9374 203.871 44.9506ZM251.439 42.2531C251.439 37.8696 248.573 34.7225 244.359 34.7225C239.694 34.7225 235.816 38.6002 235.816 43.939V59H231.321V30.9011H235.142L235.76 36.0713C237.221 32.587 240.537 30.2267 245.033 30.2267C251.383 30.2267 255.935 35.1159 255.935 41.9159V59H251.439V42.2531ZM273.233 59.6744C265.141 59.6744 259.521 53.5488 259.521 45.0629C259.521 36.4647 265.141 30.2267 273.008 30.2267C281.101 30.2267 286.271 36.7457 286.271 45.7373C286.271 45.9621 286.271 46.2431 286.215 46.6927H264.466C265.141 51.6943 268.625 55.1785 273.233 55.1785C276.942 55.1785 280.314 52.8182 280.989 49.5588L286.046 51.1323C284.81 56.0777 279.527 59.6744 273.233 59.6744ZM264.579 42.3093H281.438C280.539 37.3638 276.83 34.6102 272.784 34.6102C268.625 34.6102 265.422 37.701 264.579 42.3093ZM286.401 30.9011H291.684L299.889 52.4811L307.532 30.9011H312.702L300.338 63.0462C298.596 67.5421 295.505 70.4644 291.684 70.9139L290.448 66.1933C292.92 65.9685 294.831 64.7322 295.843 62.1471L297.416 58.1008L286.401 30.9011Z" fill="#00B140"/>
</svg>
